<svg width="162" height="38" viewBox="0 0 162 38" fill="none" xmlns="http://www.w3.org/2000/svg">
<rect x="1" y="1" width="141.329" height="26" rx="4" fill="white" stroke="black" stroke-width="2"/>
<path d="M30.0039 17.364L30.9759 16.374L34.9359 20.262L33.9639 21.252L30.0039 17.364ZM28.9959 21.252C27.7959 21.252 26.7279 20.985 25.7919 20.451C24.8559 19.911 24.1209 19.152 23.5869 18.174C23.0529 17.19 22.7859 16.032 22.7859 14.7C22.7859 13.368 23.0529 12.213 23.5869 11.235C24.1209 10.251 24.8559 9.492 25.7919 8.958C26.7279 8.418 27.7959 8.148 28.9959 8.148C30.1959 8.148 31.2639 8.418 32.1999 8.958C33.1359 9.492 33.8709 10.251 34.4049 11.235C34.9389 12.213 35.2059 13.368 35.2059 14.7C35.2059 16.032 34.9389 17.19 34.4049 18.174C33.8709 19.152 33.1359 19.911 32.1999 20.451C31.2639 20.985 30.1959 21.252 28.9959 21.252ZM28.9959 19.596C29.9619 19.596 30.7689 19.38 31.4169 18.948C32.0649 18.51 32.5509 17.922 32.8749 17.184C33.2049 16.44 33.3699 15.612 33.3699 14.7C33.3699 13.788 33.2049 12.963 32.8749 12.225C32.5509 11.481 32.0649 10.893 31.4169 10.461C30.7689 10.023 29.9619 9.804 28.9959 9.804C28.0299 9.804 27.2229 10.023 26.5749 10.461C25.9269 10.893 25.4379 11.481 25.1079 12.225C24.7839 12.963 24.6219 13.788 24.6219 14.7C24.6219 15.612 24.7839 16.44 25.1079 17.184C25.4379 17.922 25.9269 18.51 26.5749 18.948C27.2229 19.38 28.0299 19.596 28.9959 19.596ZM40.0956 21.18C39.4056 21.18 38.8176 21.042 38.3316 20.766C37.8456 20.484 37.4736 20.058 37.2156 19.488C36.9636 18.918 36.8376 18.192 36.8376 17.31V12.18H38.4576V16.86C38.4576 17.796 38.6166 18.51 38.9346 19.002C39.2586 19.494 39.7836 19.74 40.5096 19.74C41.0076 19.74 41.4696 19.62 41.8956 19.38C42.3216 19.14 42.6156 18.756 42.7776 18.228L42.5436 19.11V12.18H44.1636V21H42.7236L42.3996 19.272L42.8316 19.56C42.5376 20.106 42.1776 20.514 41.7516 20.784C41.3316 21.048 40.7796 21.18 40.0956 21.18ZM50.5971 21.18C49.5591 21.18 48.6861 20.967 47.9781 20.541C47.2701 20.115 46.7331 19.551 46.3671 18.849C46.0071 18.141 45.8271 17.364 45.8271 16.518C45.8271 15.696 45.9951 14.943 46.3311 14.259C46.6731 13.575 47.1651 13.029 47.8071 12.621C48.4551 12.207 49.2351 12 50.1471 12C50.8791 12 51.5301 12.147 52.1001 12.441C52.6761 12.729 53.1261 13.152 53.4501 13.71C53.7801 14.262 53.9451 14.934 53.9451 15.726C53.9451 15.852 53.9391 15.99 53.9271 16.14C53.9211 16.284 53.9031 16.434 53.8731 16.59H47.4831C47.5611 17.406 47.7561 18.042 48.0681 18.498C48.3801 18.954 48.7731 19.275 49.2471 19.461C49.7211 19.647 50.2371 19.74 50.7951 19.74C51.2031 19.74 51.6291 19.698 52.0731 19.614C52.5171 19.53 52.9371 19.398 53.3331 19.218L53.5491 20.496C53.2071 20.646 52.7901 20.799 52.2981 20.955C51.8061 21.105 51.2391 21.18 50.5971 21.18ZM47.6271 15.474H52.2711C52.2711 15.06 52.1931 14.7 52.0371 14.394C51.8811 14.088 51.6441 13.854 51.3261 13.692C51.0081 13.524 50.6031 13.44 50.1111 13.44C49.3911 13.44 48.8361 13.62 48.4461 13.98C48.0621 14.334 47.7891 14.832 47.6271 15.474ZM55.578 21V12.18H56.91L57.108 13.638C57.558 13.08 57.987 12.669 58.395 12.405C58.809 12.135 59.25 12 59.718 12C59.868 12 60.006 12.018 60.132 12.054L59.97 13.836C59.892 13.818 59.808 13.806 59.718 13.8C59.634 13.788 59.538 13.782 59.43 13.782C58.962 13.782 58.53 13.887 58.134 14.097C57.744 14.301 57.468 14.526 57.306 14.772V21H55.578ZM64.8968 21.18C63.9728 21.18 63.1838 20.976 62.5298 20.568C61.8818 20.154 61.3838 19.602 61.0358 18.912C60.6938 18.216 60.5228 17.442 60.5228 16.59C60.5228 15.738 60.6938 14.967 61.0358 14.277C61.3838 13.581 61.8818 13.029 62.5298 12.621C63.1838 12.207 63.9728 12 64.8968 12C65.8148 12 66.6008 12.207 67.2548 12.621C67.9088 13.029 68.4068 13.581 68.7488 14.277C69.0968 14.967 69.2708 15.738 69.2708 16.59C69.2708 17.442 69.0968 18.216 68.7488 18.912C68.4068 19.602 67.9088 20.154 67.2548 20.568C66.6008 20.976 65.8148 21.18 64.8968 21.18ZM64.8968 19.74C65.7728 19.74 66.4448 19.464 66.9128 18.912C67.3808 18.354 67.6148 17.58 67.6148 16.59C67.6148 15.6 67.3808 14.829 66.9128 14.277C66.4448 13.719 65.7728 13.44 64.8968 13.44C64.0268 13.44 63.3548 13.719 62.8808 14.277C62.4128 14.829 62.1788 15.6 62.1788 16.59C62.1788 17.58 62.4128 18.354 62.8808 18.912C63.3548 19.464 64.0268 19.74 64.8968 19.74ZM74.7502 21L76.4422 8.4H77.9002L81.2122 14.646L84.4883 8.4H85.9642L87.6383 21H85.8383L84.5603 10.722L85.0103 10.794L81.2302 18.012L77.3782 10.794L77.8282 10.722L76.5502 21H74.7502ZM92.5487 21.18C91.8587 21.18 91.2707 21.042 90.7847 20.766C90.2987 20.484 89.9267 20.058 89.6687 19.488C89.4167 18.918 89.2907 18.192 89.2907 17.31V12.18H90.9107V16.86C90.9107 17.796 91.0697 18.51 91.3877 19.002C91.7117 19.494 92.2367 19.74 92.9627 19.74C93.4607 19.74 93.9227 19.62 94.3487 19.38C94.7747 19.14 95.0687 18.756 95.2307 18.228L94.9967 19.11V12.18H96.6167V21H95.1767L94.8527 19.272L95.2847 19.56C94.9907 20.106 94.6307 20.514 94.2047 20.784C93.7847 21.048 93.2327 21.18 92.5487 21.18ZM102.312 21.18C101.562 21.18 100.884 20.976 100.278 20.568C99.6722 20.16 99.1892 19.611 98.8292 18.921C98.4752 18.231 98.2982 17.46 98.2982 16.608C98.2982 15.798 98.4602 15.042 98.7842 14.34C99.1142 13.638 99.5792 13.074 100.179 12.648C100.779 12.216 101.49 12 102.312 12C102.9 12 103.467 12.129 104.013 12.387C104.565 12.639 105.012 13.062 105.354 13.656L105.012 13.89V7.5H106.632V21H105.192L104.886 19.128L105.3 19.416C105.042 19.998 104.637 20.439 104.085 20.739C103.533 21.033 102.942 21.18 102.312 21.18ZM102.6 19.74C103.008 19.74 103.41 19.635 103.806 19.425C104.208 19.215 104.538 18.882 104.796 18.426C105.06 17.964 105.192 17.358 105.192 16.608C105.192 15.912 105.06 15.33 104.796 14.862C104.538 14.388 104.208 14.034 103.806 13.8C103.41 13.56 103.008 13.44 102.6 13.44C102.048 13.44 101.574 13.578 101.178 13.854C100.782 14.13 100.479 14.508 100.269 14.988C100.059 15.462 99.9542 16.002 99.9542 16.608C99.9542 17.178 100.059 17.7 100.269 18.174C100.479 18.648 100.782 19.029 101.178 19.317C101.574 19.599 102.048 19.74 102.6 19.74ZM110.857 21.18C110.311 21.18 109.834 21.069 109.426 20.847C109.018 20.625 108.7 20.322 108.472 19.938C108.25 19.554 108.139 19.116 108.139 18.624C108.139 18.126 108.247 17.7 108.463 17.346C108.685 16.986 108.979 16.689 109.345 16.455C109.717 16.215 110.131 16.026 110.587 15.888C111.043 15.744 111.514 15.642 112 15.582C112.492 15.516 112.963 15.48 113.413 15.474C113.413 14.634 113.248 14.085 112.918 13.827C112.588 13.569 112.111 13.44 111.487 13.44C111.157 13.44 110.803 13.491 110.425 13.593C110.053 13.695 109.633 13.908 109.165 14.232L108.931 12.918C109.285 12.648 109.726 12.429 110.254 12.261C110.782 12.087 111.337 12 111.919 12C112.663 12 113.263 12.132 113.719 12.396C114.175 12.654 114.508 13.092 114.718 13.71C114.928 14.328 115.033 15.168 115.033 16.23V18.03C115.033 18.45 115.051 18.798 115.087 19.074C115.129 19.344 115.219 19.548 115.357 19.686C115.501 19.818 115.729 19.884 116.041 19.884H116.203L115.951 21.18H115.825C115.303 21.18 114.898 21.129 114.61 21.027C114.328 20.925 114.112 20.778 113.962 20.586C113.812 20.394 113.677 20.16 113.557 19.884C113.227 20.268 112.837 20.58 112.387 20.82C111.937 21.06 111.427 21.18 110.857 21.18ZM111.163 19.884C111.595 19.884 112.012 19.776 112.414 19.56C112.822 19.344 113.155 19.056 113.413 18.696V16.59C112.555 16.62 111.859 16.704 111.325 16.842C110.797 16.98 110.41 17.187 110.164 17.463C109.918 17.739 109.795 18.096 109.795 18.534C109.795 19.008 109.921 19.353 110.173 19.569C110.431 19.779 110.761 19.884 111.163 19.884ZM117.453 21V12.18H118.785L118.983 13.638C119.433 13.08 119.862 12.669 120.27 12.405C120.684 12.135 121.125 12 121.593 12C121.743 12 121.881 12.018 122.007 12.054L121.845 13.836C121.767 13.818 121.683 13.806 121.593 13.8C121.509 13.788 121.413 13.782 121.305 13.782C120.837 13.782 120.405 13.887 120.009 14.097C119.619 14.301 119.343 14.526 119.181 14.772V21H117.453Z" fill="#595047"/>
<ellipse cx="5.65494" cy="6.57359" rx="5.65494" ry="6.57359" transform="matrix(0.871613 0.490195 -0.606206 0.795308 48.8702 22)" fill="black"/>
<ellipse cx="5.65494" cy="6.57359" rx="5.65494" ry="6.57359" transform="matrix(0.871613 0.490195 -0.606206 0.795308 34.0297 22)" fill="black"/>
<ellipse cx="2.83117" cy="3.29109" rx="2.83117" ry="3.29109" transform="matrix(0.871613 0.490195 -0.606206 0.795308 34.9093 25.4783)" fill="white"/>
<ellipse cx="2.83117" cy="3.29109" rx="2.83117" ry="3.29109" transform="matrix(0.871613 0.490195 -0.606206 0.795308 49.9586 25.4783)" fill="white"/>
<rect x="143.829" y="8.5" width="12.0299" height="19" rx="4.5" fill="#FFB800" stroke="black"/>
<path d="M155.936 27.5792L153.37 27.5741C150.316 27.568 147.847 25.0868 147.855 22.0321C147.864 18.9774 150.348 16.5059 153.402 16.512L155.968 16.5171C159.022 16.5231 161.491 19.0044 161.483 22.0591C161.474 25.1138 158.99 27.5852 155.936 27.5792Z" fill="#FFB800" stroke="black"/>
<rect width="10" height="10.023" rx="5" transform="matrix(-0.00288492 0.999996 -0.999998 -0.00198357 157.39 15.0198)" fill="#FFB800"/>
<rect width="10" height="10.023" rx="5" transform="matrix(-0.00288492 0.999996 -0.999998 -0.00198357 154.383 17.0198)" fill="#FFB800"/>
<ellipse cx="5.65494" cy="6.57359" rx="5.65494" ry="6.57359" transform="matrix(0.871613 0.490195 -0.606206 0.795308 150.398 22)" fill="black"/>
<ellipse cx="2.83117" cy="3.29109" rx="2.83117" ry="3.29109" transform="matrix(0.871613 0.490195 -0.606206 0.795308 151.277 26.1736)" fill="white"/>
</svg>
