<svg width="90" height="90" viewBox="0 0 90 90" fill="none" xmlns="http://www.w3.org/2000/svg">
<g clip-path="url(#clip0_102_73)">
<path d="M83.5975 2.17591C83.3882 1.30144 82.7766 0.578223 81.9492 0.226164C81.1218 -0.125895 80.1766 -0.0644452 79.4012 0.391605C69.2351 6.37131 56.6045 6.37169 46.4377 0.391605C45.5506 -0.130622 44.4494 -0.130622 43.5619 0.391605C33.3957 6.3715 20.7649 6.3715 10.5986 0.391605C9.82361 -0.0644452 8.87823 -0.125328 8.05084 0.226164C7.22344 0.578034 6.61178 1.30144 6.40248 2.17591C-0.910401 32.7279 10.5616 64.7042 35.6287 83.6393L43.2904 89.4269C43.7962 89.8091 44.3978 90 44.9998 90C45.6016 90 46.2037 89.8089 46.7094 89.4269L54.3712 83.6393C79.4384 64.7042 90.9104 32.7279 83.5975 2.17591ZM50.9525 79.1132L45 83.6095L39.0477 79.1132C16.7566 62.2751 6.04796 34.3246 11.1562 7.07278C21.9269 12.0148 34.4643 11.6858 45 6.08543C55.5361 11.6858 68.0729 12.015 78.8438 7.07278C83.952 34.3246 73.2434 62.2751 50.9525 79.1132Z" fill="black"/>
<path d="M75.0997 13.4519C74.6442 13.1289 74.0691 13.0236 73.5296 13.1647C70.069 14.0658 66.4994 14.5228 62.9198 14.5228C57.0664 14.5228 51.1357 13.2613 45.7684 10.8744C45.2791 10.6569 44.7209 10.6569 44.2318 10.8744C38.8647 13.2613 32.934 14.5228 27.0805 14.5228C23.5008 14.5228 19.931 14.0658 16.4706 13.1647C15.9304 13.0238 15.3558 13.1291 14.9007 13.4519C14.4456 13.7746 14.1561 14.2821 14.1098 14.8382C13.1888 25.9439 14.9905 37.2461 19.3201 47.5225C24.0553 58.7619 31.7046 68.5903 41.441 75.9449L43.8606 77.7726C44.1978 78.0272 44.599 78.1547 45.0002 78.1547C45.4014 78.1547 45.8026 78.0272 46.1398 77.7726L48.5592 75.9449C58.2958 68.5901 65.945 58.7616 70.6803 47.5225C75.0097 37.2459 76.8116 25.9439 75.8906 14.8382C75.8443 14.2819 75.555 13.7746 75.0997 13.4519ZM67.1952 46.0542C62.7183 56.6806 55.4858 65.9735 46.2799 72.9275L45 73.8944L43.72 72.9277C34.5142 65.9739 27.2817 56.6812 22.8046 46.0544C18.9955 37.0131 17.2556 27.1322 17.7338 17.3428C20.8047 17.9814 23.9391 18.3043 27.0804 18.3043C33.1811 18.3043 39.3578 17.0473 45 14.6629C50.6424 17.0471 56.8191 18.3043 62.9196 18.3043C66.0608 18.3043 69.1951 17.9814 72.2662 17.3428C72.7444 27.132 71.0045 37.013 67.1952 46.0542Z" fill="black"/>
</g>
<defs>
<clipPath id="clip0_102_73">
<rect width="90" height="90" rx="10" fill="white"/>
</clipPath>
</defs>
</svg>
