<svg width="39" height="39" viewBox="0 0 39 39" fill="none" xmlns="http://www.w3.org/2000/svg">
<g clip-path="url(#clip0_43_21)">
<path d="M19.5 0C8.74725 0 0 8.74725 0 19.5C0 23.1682 1.01925 26.7292 2.95275 29.8215C2.1825 32.52 0.79125 37.6245 0.77625 37.6777C0.70425 37.9417 0.7815 38.2237 0.97875 38.4135C1.176 38.6032 1.461 38.6707 1.7205 38.5913L9.45 36.2137C12.4778 38.0378 15.945 39 19.5 39C30.2528 39 39 30.2528 39 19.5C39 8.74725 30.2528 0 19.5 0ZM19.5 37.5C16.1108 37.5 12.8092 36.5527 9.95175 34.7617C9.831 34.686 9.69225 34.6478 9.5535 34.6478C9.47925 34.6478 9.405 34.659 9.333 34.6808L2.58375 36.7583C3.0795 34.9485 3.9705 31.7115 4.48725 29.9108C4.54725 29.7022 4.5135 29.4773 4.39575 29.295C2.50125 26.3798 1.5 22.9928 1.5 19.5C1.5 9.57525 9.57525 1.5 19.5 1.5C29.4247 1.5 37.5 9.57525 37.5 19.5C37.5 29.4247 29.4247 37.5 19.5 37.5Z" fill="black"/>
<path d="M32.2388 24.0946C30.8543 23.3258 29.6753 22.5548 28.815 21.9923C28.158 21.5633 27.6833 21.2536 27.3353 21.0788C26.3625 20.5936 25.6253 20.9363 25.3448 21.2198C25.3095 21.2551 25.278 21.2933 25.251 21.3338C24.2408 22.8496 22.9215 24.2993 22.5353 24.3773C22.089 24.3076 20.0003 23.1203 17.9243 21.3916C15.8048 19.6253 14.4713 17.9341 14.2755 16.7821C15.6353 15.3826 16.125 14.5021 16.125 13.5001C16.125 12.4673 13.716 8.15559 13.2803 7.71984C12.843 7.28334 11.8583 7.21509 10.353 7.51509C10.2083 7.54434 10.0748 7.61559 9.96979 7.71984C9.78754 7.90209 5.52304 12.2498 7.54954 17.5193C9.77404 23.3026 15.4838 30.0248 22.7633 31.1168C23.5905 31.2406 24.366 31.3021 25.092 31.3021C29.3745 31.3021 31.902 29.1473 32.6138 24.8731C32.667 24.5603 32.5163 24.2483 32.2388 24.0946ZM22.986 29.6333C15.288 28.4791 10.4393 20.8523 8.94979 16.9808C7.47229 13.1408 10.197 9.71709 10.881 8.94309C11.4375 8.84859 12.0233 8.80884 12.2678 8.84709C12.7785 9.55734 14.547 12.8986 14.625 13.5001C14.625 13.8938 14.4968 14.4421 12.9698 15.9698C12.8288 16.1101 12.75 16.3006 12.75 16.5001C12.75 20.4271 21.033 25.8751 22.5 25.8751C23.7758 25.8751 25.4393 23.7308 26.3865 22.3336C26.4413 22.3358 26.5335 22.3546 26.6648 22.4206C26.9348 22.5563 27.4028 22.8616 27.9945 23.2486C28.776 23.7593 29.814 24.4373 31.0395 25.1401C30.483 27.8176 28.9275 30.5258 22.986 29.6333Z" fill="black"/>
</g>
<defs>
<clipPath id="clip0_43_21">
<rect width="39" height="39" fill="white"/>
</clipPath>
</defs>
</svg>
